<svg width="57" height="84" viewBox="0 0 57 84" fill="none" xmlns="http://www.w3.org/2000/svg">
<path d="M39.1875 83.75C31.2292 83.75 24.5625 82.4167 19.1875 79.75C13.8125 77.125 9.77083 73.5417 7.0625 69C4.35417 64.5 3 59.4583 3 53.875C3 48.7917 4.47917 43.7708 7.4375 38.8125C10.4375 33.8125 14.4583 29.2292 19.5 25.0625C24.5833 20.8542 30.2292 17.3958 36.4375 14.6875V25.9375C26.8958 29.9792 19.625 34.1667 14.625 38.5C9.625 42.7917 7.125 47.1875 7.125 51.6875C7.125 57.8958 8.60417 62.4792 11.5625 65.4375C14.5208 68.3958 18.6458 70.3125 23.9375 71.1875C29.2292 72.0625 35.375 72.5 42.375 72.5H56.3125V74.3125L39.1875 83.75ZM10.75 37.5C7.33333 36.0833 4.77083 34.2292 3.0625 31.9375C1.35417 29.6458 0.5 27.5417 0.5 25.625C0.5 19.7917 1.22917 15.0417 2.6875 11.375C4.14583 7.70833 6 5.02083 8.25 3.3125C10.5 1.5625 12.8125 0.6875 15.1875 0.6875C17.3958 0.6875 19.4792 1.375 21.4375 2.75C23.4375 4.125 24.9583 6.10417 26 8.6875L25.375 9.5C24.0833 9 22.5208 8.75 20.6875 8.75C18.4792 8.75 16.1458 9.14583 13.6875 9.9375C11.2708 10.6875 9.08333 11.7917 7.125 13.25C5.20833 14.7083 3.89583 16.5 3.1875 18.625L3.5 15.8125C3.66667 17.1875 4.22917 18.6667 5.1875 20.25C6.1875 21.8333 7.5 23.1875 9.125 24.3125C10.75 25.4375 12.5833 26 14.625 26C15.7083 26 16.8333 25.7917 18 25.375C19.2083 24.9583 20.4167 24.2917 21.625 23.375L10.75 37.5Z" fill="white"/>
</svg>
