<svg width="8" height="70" viewBox="0 0 8 70" fill="none" xmlns="http://www.w3.org/2000/svg">
<path d="M0.625 9.375L7.1875 0.6875C7.02083 5.60417 7 10.8542 7.125 16.4375C7.29167 22.0208 7.41667 27.7083 7.5 33.5C7.625 39.25 7.5625 44.875 7.3125 50.375C7.0625 55.8333 6.45833 60.9167 5.5 65.625C5.04167 67.75 3.72917 68.9792 1.5625 69.3125C1.72917 61.9792 1.75 55.625 1.625 50.25C1.5 44.875 1.3125 40.0208 1.0625 35.6875C0.854167 31.3125 0.6875 27.0625 0.5625 22.9375C0.4375 18.7708 0.458333 14.25 0.625 9.375Z" fill="white"/>
</svg>
