<svg width="52" height="80" viewBox="0 0 52 80" fill="none" xmlns="http://www.w3.org/2000/svg">
<path d="M39.1875 79.6875C29.8958 79.6875 22.3958 78.1458 16.6875 75.0625C11.0208 72.0208 6.89583 68.0417 4.3125 63.125C1.77083 58.2083 0.5 52.9583 0.5 47.375C0.5 43.125 1.22917 38.7708 2.6875 34.3125C4.14583 29.8542 6.39583 25.5833 9.4375 21.5C12.5208 17.4167 16.5 13.8542 21.375 10.8125L21.5 11.25C20.25 11.125 19.0208 10.875 17.8125 10.5C16.6042 10.125 15.2708 9.9375 13.8125 9.9375C11.8958 9.9375 10.1875 10.3958 8.6875 11.3125C7.22917 12.1875 6.04167 13.1875 5.125 14.3125C4.20833 15.3958 3.625 16.2708 3.375 16.9375L2.5 16.5625C2.75 13.8125 3.54167 11.1875 4.875 8.6875C6.25 6.14583 8.0625 4.08333 10.3125 2.5C12.5625 0.916667 15.1458 0.125 18.0625 0.125C20.1042 0.125 22.0833 0.4375 24 1.0625C25.9583 1.6875 28.1458 2.3125 30.5625 2.9375C33.0208 3.5625 36.0208 3.875 39.5625 3.875C42.3958 3.875 45.2083 3.75 48 3.5L43.6875 13.9375C42.4792 13.7708 41.1042 13.6875 39.5625 13.6875C35.2708 13.6875 31.0417 14.5208 26.875 16.1875C22.75 17.8542 19 20.1458 15.625 23.0625C12.2917 25.9792 9.625 29.3333 7.625 33.125C5.625 36.9167 4.625 40.9375 4.625 45.1875C4.625 51.3958 6.3125 56.1875 9.6875 59.5625C13.0625 62.9375 17.6042 65.2708 23.3125 66.5625C29.0208 67.8542 35.375 68.5 42.375 68.5H51.9375V70.3125L39.1875 79.6875Z" fill="white"/>
</svg>
