<svg width="69" height="75" viewBox="0 0 69 75" fill="none" xmlns="http://www.w3.org/2000/svg">
<path d="M26.25 74.9375C19.7083 74.9375 14.4167 73.6458 10.375 71.0625C6.375 68.4375 3.02083 65.2917 0.3125 61.625L0.6875 60.75C4.14583 61.7917 7.95833 62.5417 12.125 63C16.2917 63.4583 20.4792 63.6875 24.6875 63.6875L26.25 74.9375ZM31.8125 0.1875L32.625 0.6875C29.5 6.5625 31.1458 10.5417 37.5625 12.625L34.1875 21.25C31.6042 20.125 29.3542 18.8125 27.4375 17.3125C25.5625 15.8125 24.625 14.2292 24.625 12.5625C24.625 11.1875 25.125 9.625 26.125 7.875C27.125 6.125 28.1875 4.52083 29.3125 3.0625C30.4792 1.5625 31.3125 0.604167 31.8125 0.1875ZM58.125 39.1875C61.2083 39.1875 63.6458 40.0208 65.4375 41.6875C67.2292 43.3542 68.125 45.5417 68.125 48.25C68.125 52.2083 66.8333 55.8333 64.25 59.125C61.6667 62.375 58.2917 65.1875 54.125 67.5625C49.9583 69.8958 45.4167 71.7083 40.5 73C35.5833 74.2917 30.7917 74.9375 26.125 74.9375L24.5625 63.6875C29.1458 63.6875 33.5833 63.5208 37.875 63.1875C42.1667 62.8542 46.0208 62.3542 49.4375 61.6875C52.8958 60.9792 55.625 60.0833 57.625 59C59.6667 57.9167 60.6875 56.6042 60.6875 55.0625C60.6875 53.2708 59.7708 51.7083 57.9375 50.375C56.1042 49.0417 53.7917 48.375 51 48.375C49.7083 48.375 47.5625 49.1458 44.5625 50.6875C41.6042 52.2292 38.3958 54.25 34.9375 56.75C31.4792 59.2083 28.3542 61.875 25.5625 64.75L21.6875 64.4375C23.4792 62.4792 25.8542 60.0833 28.8125 57.25C31.8125 54.4167 35.0625 51.625 38.5625 48.875C42.0625 46.125 45.5208 43.8333 48.9375 42C52.3958 40.125 55.4583 39.1875 58.125 39.1875ZM28.9375 58.5625C29.0625 44.1875 28.5625 29.8125 27.4375 15.4375C28.3125 15.9792 29.1875 16.5208 30.0625 17.0625C30.9375 17.5625 31.8125 18.0625 32.6875 18.5625C33.3125 30.7708 33.3125 43 32.6875 55.25C32.0625 55.8333 31.4375 56.3958 30.8125 56.9375C30.1875 57.4792 29.5625 58.0208 28.9375 58.5625Z" fill="white"/>
</svg>
